<?xml version="1.0" encoding="UTF-8"?> <svg xmlns="http://www.w3.org/2000/svg" width="44" height="45" viewBox="0 0 44 45" fill="none"> <path d="M16.5 22.0312C15.8922 22.0312 15.3093 22.2782 14.8796 22.7177C14.4498 23.1573 14.2084 23.7534 14.2084 24.375C14.2084 24.9966 14.4498 25.5927 14.8796 26.0323C15.3093 26.4718 15.8922 26.7188 16.5 26.7188C16.801 26.7188 17.099 26.6581 17.377 26.5403C17.655 26.4226 17.9077 26.2499 18.1205 26.0323C18.3333 25.8146 18.5021 25.5563 18.6172 25.2719C18.7324 24.9876 18.7917 24.6828 18.7917 24.375C18.7917 24.0672 18.7324 23.7624 18.6172 23.4781C18.5021 23.1937 18.3333 22.9354 18.1205 22.7177C17.9077 22.5001 17.655 22.3274 17.377 22.2097C17.099 22.0919 16.801 22.0312 16.5 22.0312ZM27.5 22.0312C26.8922 22.0312 26.3093 22.2782 25.8796 22.7177C25.4498 23.1573 25.2084 23.7534 25.2084 24.375C25.2084 24.9966 25.4498 25.5927 25.8796 26.0323C26.3093 26.4718 26.8922 26.7188 27.5 26.7188C28.1078 26.7188 28.6907 26.4718 29.1205 26.0323C29.5502 25.5927 29.7917 24.9966 29.7917 24.375C29.7917 23.7534 29.5502 23.1573 29.1205 22.7177C28.6907 22.2782 28.1078 22.0312 27.5 22.0312ZM22 3.75C19.5925 3.75 17.2085 4.23498 14.9842 5.17726C12.7599 6.11953 10.7388 7.50065 9.0364 9.24175C5.59823 12.7581 3.66669 17.5272 3.66669 22.5C3.66669 27.4728 5.59823 32.2419 9.0364 35.7583C10.7388 37.4994 12.7599 38.8805 14.9842 39.8227C17.2085 40.765 19.5925 41.25 22 41.25C26.8623 41.25 31.5255 39.2746 34.9636 35.7583C38.4018 32.2419 40.3334 27.4728 40.3334 22.5C40.3334 20.0377 39.8592 17.5995 38.9378 15.3247C38.0165 13.0498 36.6661 10.9828 34.9636 9.24175C33.2612 7.50065 31.2402 6.11953 29.0159 5.17726C26.7916 4.23498 24.4076 3.75 22 3.75ZM22 37.5C13.915 37.5 7.33335 30.7687 7.33335 22.5C7.33335 21.9562 7.33335 21.4125 7.42502 20.8875C11.7517 18.9188 15.18 15.3 16.9767 10.8187C19.0727 13.8607 22.0084 16.194 25.4082 17.52C28.808 18.8461 32.5174 19.1046 36.0617 18.2625C36.4467 19.5938 36.6667 21.0187 36.6667 22.5C36.6667 30.7687 30.085 37.5 22 37.5Z" fill="black"></path> </svg> 