<?xml version="1.0" encoding="UTF-8"?> <svg xmlns="http://www.w3.org/2000/svg" width="45" height="45" viewBox="0 0 45 45" fill="none"> <path d="M22.5 37.5C18.5218 37.5 14.7064 35.9196 11.8934 33.1066C9.08035 30.2936 7.5 26.4782 7.5 22.5C7.5 18.5218 9.08035 14.7064 11.8934 11.8934C14.7064 9.08035 18.5218 7.5 22.5 7.5C26.4783 7.5 30.2936 9.08035 33.1066 11.8934C35.9197 14.7064 37.5 18.5218 37.5 22.5C37.5 26.4782 35.9197 30.2936 33.1066 33.1066C30.2936 35.9196 26.4783 37.5 22.5 37.5ZM22.5 3.75C20.0377 3.75 17.5995 4.23498 15.3247 5.17726C13.0498 6.11953 10.9828 7.50065 9.24175 9.24175C5.72544 12.7581 3.75 17.5272 3.75 22.5C3.75 27.4728 5.72544 32.2419 9.24175 35.7582C10.9828 37.4993 13.0498 38.8805 15.3247 39.8227C17.5995 40.765 20.0377 41.25 22.5 41.25C27.4728 41.25 32.2419 39.2746 35.7583 35.7582C39.2746 32.2419 41.25 27.4728 41.25 22.5C41.25 20.0377 40.765 17.5995 39.8227 15.3247C38.8805 13.0498 37.4994 10.9828 35.7583 9.24175C34.0172 7.50065 31.9502 6.11953 29.6753 5.17726C27.4005 4.23498 24.9623 3.75 22.5 3.75ZM22.5 23.4375C21.7541 23.4375 21.0387 23.1412 20.5113 22.6137C19.9838 22.0863 19.6875 21.3709 19.6875 20.625C19.6875 19.8791 19.9838 19.1637 20.5113 18.6363C21.0387 18.1088 21.7541 17.8125 22.5 17.8125C23.2459 17.8125 23.9613 18.1088 24.4887 18.6363C25.0162 19.1637 25.3125 19.8791 25.3125 20.625C25.3125 21.3709 25.0162 22.0863 24.4887 22.6137C23.9613 23.1412 23.2459 23.4375 22.5 23.4375ZM22.5 13.5C18.5625 13.5 15.375 16.6875 15.375 20.625C15.375 26.25 22.5 32.8125 22.5 32.8125C22.5 32.8125 29.625 26.25 29.625 20.625C29.625 16.6875 26.4375 13.5 22.5 13.5Z" fill="black"></path> </svg> 